<?xml version="1.0" encoding="utf-8"?>
<!-- Generator: Adobe Illustrator 22.1.0, SVG Export Plug-In . SVG Version: 6.00 Build 0)  -->
<svg version="1.1" id="Layer_1" xmlns="http://www.w3.org/2000/svg" xmlns:xlink="http://www.w3.org/1999/xlink" x="0px" y="0px"
	 viewBox="0 0 40 11" style="enable-background:new 0 0 40 11;" xml:space="preserve">
<style type="text/css">
	.st0{opacity:0.75;fill:#FFFFFF;}
	.st1{fill:#FFFFFF;}
	.st2{opacity:0.5;fill:#FFFFFF;}
	.st3{opacity:0.25;fill:#FFFFFF;}
	.st4{fill:none;}
</style>
<path class="st0" d="M29,9.9996h-2V1h2V9.9996z"/>
<path class="st1" d="M31.5216,1.013c0.0702,0.0083,0.134,0.0235,0.1904,0.0467c0.0581,0.0224,0.1123,0.0543,0.1633,0.0959
	c0.0517,0.0405,0.1109,0.0966,0.1768,0.1664l4.8959,5.4041c-0.0175-0.1733-0.0321-0.3401-0.0421-0.5032
	c-0.0093-0.1624-0.0143-0.3158-0.0143-0.4598V1.0004H39V10h-1.2449c-0.1847,0-0.339-0.0253-0.4674-0.0749
	c-0.1283-0.0496-0.2499-0.14-0.3668-0.2713l-4.8617-5.361c0.0143,0.157,0.0253,0.3093,0.036,0.4598
	c0.0082,0.1505,0.0128,0.2916,0.0128,0.4225v4.8238H30V1.0004h1.2603C31.364,1.0004,31.4506,1.0047,31.5216,1.013z"/>
<path class="st2" d="M26,9.9996h-2V1h2V9.9996L26,9.9996z"/>
<path class="st3" d="M23,9.9996h-2V1h2V9.9996z"/>
<path class="st0" d="M10.883,7.9799l-0.5314,1.5693c-0.0416,0.1143-0.1219,0.2192-0.2413,0.3111
	c-0.119,0.093-0.2652,0.1389-0.4385,0.1389H8.0417l3.4834-8.9989h2.1373L10.883,7.9799z"/>
<path class="st2" d="M7.5019,7.9799L6.9705,9.5492C6.9292,9.6636,6.8489,9.7685,6.7295,9.8604
	c-0.1194,0.093-0.2652,0.1389-0.4388,0.1389H4.6606L8.144,1.0004h2.1373L7.5019,7.9799z"/>
<path class="st3" d="M4.09,7.9799L3.5586,9.5492C3.517,9.6636,3.4367,9.7685,3.3173,9.8604
	c-0.1197,0.093-0.2652,0.1389-0.4388,0.1389H1.2487l3.4827-8.9989h2.1369L4.09,7.9799z"/>
<path class="st1" d="M20.4217,9.9986h-1.6185c-0.1809,0-0.3307-0.0416-0.4471-0.1266c-0.1172-0.0839-0.199-0.1917-0.2442-0.3238
	l-0.5311-1.5693h-3.4219l-0.5311,1.5693c-0.0416,0.114-0.1216,0.2185-0.2413,0.3111c-0.1197,0.0919-0.2659,0.1389-0.4385,0.1389
	h-1.6308L14.8006,1h2.1373L20.4217,9.9986z M14.6407,6.5589h2.4582l-0.8277-2.4643c-0.0532-0.1566-0.1161-0.3408-0.1885-0.5524
	c-0.0716-0.2124-0.1429-0.4421-0.212-0.6877c-0.0662,0.2496-0.1342,0.4833-0.2044,0.6975c-0.0695,0.2138-0.136,0.3994-0.1975,0.5553
	L14.6407,6.5589z"/>
<rect class="st4" width="40" height="11"/>
</svg>
